<?xml version="1.0" encoding="utf-8"?>
<!-- Generator: Adobe Illustrator 23.0.3, SVG Export Plug-In . SVG Version: 6.00 Build 0)  -->
<svg version="1.1" id="Layer_1" xmlns="http://www.w3.org/2000/svg" xmlns:xlink="http://www.w3.org/1999/xlink" x="0px" y="0px"
	 viewBox="0 0 1178 387" style="enable-background:new 0 0 1178 387;" xml:space="preserve">
<style type="text/css">
	.st0{fill:#636362;}
</style>
<path class="st0" d="M371.9,2.5c6.9-3.8,16.5-1.4,20.5,5.5c9.2,15.4,22.2,28.5,37.8,37.3c2.9,1.7,6,3.1,8.3,5.6
	c4.6,5.4,4.8,13.9,0.6,19.5c-2.8,3.4-6.9,5.2-10.6,7.2c5.1,2.3,9.9,6.7,10.1,12.7c1,14.1-0.9,28.3-0.1,42.5
	c11.2-23.2,31-42.5,55.2-51.7c14.4-5.8,30-6.8,45.4-6.9c19.3,0.8,38.8,7.2,53.7,19.8c-2.6-4.3-4.8-9.3-3.2-14.4
	c1.1-4.9,5-8.4,9.4-10.4c27.6-14.9,55.3-29.8,82.9-44.8c3.5-1.9,6.9-4,10.7-5.5c6.2-2.4,13.9-0.3,17.8,5.2c2.6,3.2,2.9,7.4,2.8,11.4
	c-0.1,17.9,0.1,35.7-0.5,53.5c21.7-13.7,49.3-17,73.9-10c25.6,8.2,46.5,32,48.3,59.2c2.2-3.6,3.4-7.7,5.3-11.4
	c8.1-15.4,20.2-28.7,35-37.9C892.4,78,912.8,73.1,933,72.5c17.6,0.2,35.3,3.9,51.1,11.9c31.1,14.6,52.3,47.1,55,81.1
	c0.5,26.7,0.1,53.4,0.2,80c-0.2,1.9,0.9,3.6,1.8,5.2c3.2-0.3,6.4-0.6,9.6-0.7c-0.1-23.9-0.5-47.7-0.4-71.6
	c-0.7-19.3,0.2-38.7-0.7-58c-0.2-6.5,0-13.9-4.7-19c-3.7-4.8-10.5-5.2-14.7-9.3c-6.8-6.6-5.2-19.6,3.3-24c31.7-17,63.4-33.9,95.1-51
	c6.4-3.3,15.3-2.1,19.8,3.9c3.1,3.8,3.1,8.9,3.2,13.6c0.2,47.3-0.2,94.6,0.3,141.8c0,29.7,0,59.4,0,89.1c-0.2,5.5,1.8,11.3,6,15
	c4.2,4.2,11.1,3.5,15.3,7.7c2.7,2.3,3.6,5.9,4.7,9.1v4.2c-1.1,3.3-2.1,6.8-4.8,9.2c-3.2,3.2-7.8,4.3-12.2,4.2
	c-36.3-0.1-72.7,0-109,0c-5-0.1-10.2,0.5-15.1-1.2c-2.9-1.1-5.1-3.4-7.3-5.6c-13.8,6.1-29.2,8.7-44.2,6.6
	c-12.8-2.4-24.4-9.5-33.2-19c-25.4,21.8-64.1,26.8-93.9,11.2c-2.9,4.7-7.5,9.1-13.4,9c-36.7,0.1-73.4,0-110,0
	c-3.5,0.2-6.6-1.3-9.6-2.9c-2.8,1.7-6,3.1-9.3,2.9c-36.7,0-73.4,0-110,0c-8.1,0.4-14.3-6.8-15.3-14.3
	c-26.1,15.8-59.1,19.5-88.3,10.7c-27.3-9.7-50.8-29.9-64.1-55.7c-0.9,8.3,0.1,17.4,5.8,24c3.3,4.4,8.7,6.5,12.3,10.6
	c5.4,6.8,3.6,18.5-4.2,22.7c-3,1.9-6.7,2.1-10.1,2.1c-72.3-0.1-144.7,0-217-0.1c-9.2,0.3-16.3-9.7-14-18.4c0.8-5.4,5.2-9.3,9.9-11.3
	c2.7-1.1,5.2-3.4,4.9-6.6c-0.8-20.5-2.6-40.9-3.6-61.3c-1.3-13.5-1.2-27.2-2.9-40.7c-3.9,12.7-8.9,25.1-13.5,37.6
	c-11.9,31.8-23.7,63.7-35.5,95.5c-1.6,4.2-2.8,8.9-5.8,12.4c-5.5,5.8-15.8,6.2-21.6,0.5c-3.9-3.5-5-8.8-6.7-13.5
	C120.7,265.4,105,220.8,89.5,176c-2.6,32.2-6.6,64.3-9.9,96.5c-0.2,5.7,2.8,11.6,7.6,14.7c2.7,1.9,5.5,3.9,7,6.9
	c3.5,6.6,1.5,15.6-4.7,19.8c-3.1,2.1-6.9,2.7-10.5,2.6c-21.4-0.1-42.7,0-64.1-0.1c-7.6,0.2-13.8-6.3-14.9-13.5v-2.8
	c0.7-2.9,1.4-6,3.3-8.3c5.1-6.1,13.7-8.2,18-15c4.1-6.2,4.1-13.9,4.9-21c4.9-44.1,9.8-88.1,14.7-132.2c1.7-16.4,3.9-32.7,5.3-49.2
	c-0.6-7.3-6.2-13.6-12.8-16.2c-4.2-1.8-8.2-5-9.5-9.5c-1.5-5.1-0.8-11.1,2.9-15.2c2.9-3.7,7.7-5.2,12.2-5.1c31.3,0,62.7,0,94,0
	c4.7-0.1,9.6,1.9,12.4,5.8c3,4.2,4,9.4,5.8,14.2c9.7,27.1,19,54.3,28.8,81.4c11.2-29.9,23.4-59.4,35-89.2c1.4-3.8,3.2-7.8,6.7-10.1
	c2.9-2.2,6.6-2.7,10.2-2.7c31.7,0.1,63.3,0,95,0.1c5.4-0.1,9.6,3.9,12.4,8.1c0,0.8,0.1,2.6,0.2,3.4c9.1-6.9,16.9-15.4,23-25.1
	C365.3,9.9,367.3,4.9,371.9,2.5z M371.9,13.5c-10.1,17.9-25.6,32.6-43.9,42c-4.1,1.9-5.5,7.5-3.1,11.2c2.2,2.9,5.9,3.7,8.9,5.3
	c13.4,6.6,25.1,16.9,33.3,29.5c3.5,4.9,4.9,11.9,11.2,14.1c-15,7.5-30.9,13-47.4,16c-3.2,0.4-6.1,2.5-7.3,5.6
	c-1.4,2.7,0.2,5.8,2,7.9c2.7,2.7,6.9,2.2,10.2,3.8c6.3,2.9,10.4,9.8,10.1,16.7c0,35,0,70,0,105.1c-0.1,9-5.8,17.7-13.9,21.5
	c-6.1-4.1-10-11.2-10.6-18.6c-5-66.7-10-133.3-14.9-200C305.7,63,314,53.3,324,51c3.5-0.8,7.6-2,8.8-5.8c1.9-4.1-1.4-8-4.5-10.3
	c-31.1-0.4-62.2,0-93.3-0.2c-3.1,0.1-6.5-0.2-9.1,1.8c-2.2,1.7-2.9,4.5-3.9,6.9c-12.9,32.7-25.9,65.4-38.8,98.1
	c-1.2,2.8-1.8,6.1-4.3,8.2c-2.2-7.6-5-15.1-7.7-22.5c-10.1-28.5-20.2-57-30.2-85.7c-1.2-3.8-5-6.2-8.9-6.1c-30-0.1-60.1,0-90.1-0.1
	c-2.8,0.1-5.9,0-8.2,1.8c-2.5,2-4.5,5.8-2.7,9c1.4,4.4,6.5,4.9,9.9,7.2c7.7,4.8,13.5,13.8,12.5,23C53,83.7,51.9,91,51.2,98.2
	c-6.1,53.9-12,107.8-18,161.7c-0.6,4.3-0.6,8.6-1.8,12.8c-2,7.1-6.8,13.4-13.1,17.2c-3.7,2.3-7.2,4.9-10.4,7.9
	c-0.2,2.4-0.7,5,0.6,7.2c1.6,3,5.1,4.4,8.3,4.2c21-0.1,42.1,0,63.1,0c4.8,0.3,9.1-4.4,8.4-9.1c-1.6-5.7-8.2-7.2-11.2-11.9
	c-6-7.2-5.3-17.2-4-25.9c4-38.6,8.2-77.1,12.1-115.7c1.2,0.6,2.6,1.2,2.8,2.7c18.9,54.6,38.1,109.1,57,163.7
	c0.9,2.8,2.4,5.9,5.5,6.7c4.2,1.6,8.9-1.3,10.1-5.4c20.5-55.3,41.1-110.5,61.6-165.7c0.6-0.8,1.3-1.5,2.1-2.1
	c1,8.6,1.8,17.3,2.1,26.1c2.2,35.3,4.4,70.6,6.6,105.9c0.5,5.3-2,11-6.9,13.4c-3.1,1.6-7.3,2.9-8.1,6.9c-1.6,5.2,3.5,10.4,8.6,9.8
	c68.7,0,137.3,0,206,0c4-0.1,8.1,0.2,12.1-0.3c4.8-0.5,8.5-5.9,6.5-10.5c-1.8-3.8-6.2-5.2-9.1-7.9c-7.3-6.2-12-15.7-11.6-25.4
	c0.3-14.7,0.1-29.3-0.1-44c0-3.5-0.5-7.2,1.3-10.4c1.3,4.4,1.6,8.9,2.4,13.4c4.8,27,21.3,51.3,43.4,67.3c11.4,7.9,24.1,14.7,37.9,17
	c32.2,6.1,66.8-4.5,90.3-27.1c5-4.2,8.4-10,13.4-14.2c1.2,9.7-3.4,19.9-11.8,24.9c-2.9,2-7.2,2.7-8.6,6.3c-1.5,2.7-0.5,6.2,1.4,8.4
	c2,2.4,5.5,2.6,8.4,2.6c35.4-0.1,70.8,0,106.2,0c5.1,0.6,9.8-4.5,8.5-9.6c-0.8-4.1-5.3-5.5-8-8.1c-6.7-5.7-9.1-14.8-8.8-23.2
	c0.2-37-0.3-74-0.2-111c-0.2-9.1,7.4-17.4,16.4-18.3c10.1-1.4,20.2,7.1,20.5,17.2c0.6,10.3-0.3,20.7,0.6,31
	c0.1,11.4-0.6,22.8,0.4,34.1c0.2,12.6-0.1,25.3,0.3,37.9c-0.1,5.8,0.3,11.6-0.2,17.4c-0.9,6.7-5,12.9-10.7,16.5
	c-2.4,1.5-5.4,2.9-6.3,5.9c-2.2,5.2,3,10.9,8.4,10.3c35,0.1,70,0,105,0.1c2.5-0.1,5.5,0.2,7.5-1.6c2.1-1.4,2.8-4,3.8-6.2
	c-1.1-2.6-2.2-5.2-3.1-7.8c2.7,1.3,5.2,3,7.8,4.6c16.3,9.8,36.4,13.5,55,9.4c15.6-3,29.9-11.2,41.4-22.1
	c7.7,11.2,19.7,19.4,32.9,22.5c11.4,1.5,23.2,0.5,34-3.5c5-1.7,9.6-4.2,14.4-6.6c0.4,2.8,0.4,6,2.7,8c2.1,2.6,5.7,2,8.7,2.1
	c38.3,0.4,76.7,0.1,115,0.2c3.6,0.3,7.6-1.4,8.9-4.9c1.9-3.8-0.4-8.9-4.4-10.2c-2.6-0.9-5.2-1.5-7.7-2.7c-7.5-3.8-12.8-11.7-13-20.1
	c-0.2-28,0.3-56-0.3-84.1c0-32,0-64,0-96c0.3-18.3-0.9-36.6-0.5-54.9c0.1-3.7,0.2-8.3-3.6-10.4c-2.8-2.4-6.6-1.4-9.3,0.4
	c-31,16.7-62.2,33.2-93.2,50c-3.8,1.8-5.8,6.8-3.5,10.5c1.8,3.6,6.2,4,9.3,5.8c7.6,3.9,12.6,12.1,13,20.6c1.2,17-0.1,34.1,0.7,51.1
	c0.4,16.7-0.5,33.4,0.5,50.1c0,12,0,24,0,35.9c0,5.9,0.6,11.8,0.1,17.8c-3-2-3.2-6.5-6.7-8c-3.3-1.6-6.9,0.4-10.3-0.3
	c-5.1-0.7-9.3-5.3-9.2-10.5c0.7-16.3,0.2-32.7,0.3-49c-0.2-13,0.8-26.2-1.3-39.1c-3.1-18.1-11.4-35.4-24-48.8
	c-12.3-13.6-29.1-22.5-46.7-27.2c-31.5-8.3-67.2-1.3-92,20.2c-14.6,12.6-25,30-29.1,48.8c-2.8,11.1-2.5,22.7-2,34
	c0.5,5.5,7.8,8.8,12.1,5.2c18.8-14.1,39.9-25.2,62.4-32.4c4.5-0.9,8.2-5.9,6.1-10.4c-2.4-4.2-5.9-8.2-5.5-13.4
	c-0.3-7.3,5.4-13.4,12-15.8c7.2-2.4,16.6,1,19.2,8.4c2,9.8,2.2,19.9,2.1,30c-31.4,3.1-61.5,15.4-87,33.8
	c-13,7.5-22.6,20.2-26.6,34.6c0.4,1.6-3.6,2.3-2.5,0.1c-0.4-10.7,0-21.4-0.3-32.1c-0.6-10.6,0.3-21.3-0.6-31.9
	c-0.3-7.4,0.1-14.8-0.2-22.1c-2.3-27.7-25.2-52-52.6-56.3c-21.5-4-44.3,1.2-62.2,13.6c-2.6,1.8-5,3.8-7.9,5.1c0-9.5,0-18.9,0-28.4
	c-0.4-13.9,0.9-27.8,0.3-41.8c-0.2-5.2-6.4-9.2-11.1-6.5c-29.9,16-59.7,32.3-89.6,48.3c-2.9,1.6-6.4,3-8,6.2
	c-1.6,2.9-0.5,6.7,1.9,8.8c2,1.6,4.5,2,6.8,3c5.5,2.1,9.8,6.8,11.8,12.4c2,5.3,1.2,11.1,1.3,16.6c-0.1,6.6,0.2,13.3,0.2,19.9
	c-0.4,0.4-1.2,1.2-1.6,1.7c-5.4-18-16.6-34.2-31.9-45.2c-15.9-11.7-35.9-17.3-55.6-16.1c-20.9,0.3-41.8,7.3-58.1,20.6
	c-17.7,15-30.4,35.5-36.3,57.9c-1.5,5.9-1.9,12-3.1,18c-2.3-2.8-1.1-6.6-1.3-9.9c0.2-24.3,0-48.6,0.1-72.9c0-1.7,0-3.5-0.2-5.2
	c-1.2-3.9-5.7-7.2-9.9-5.5c-5,2.5-8.2,7.2-12.6,10.5c-6.9,5.3-13.5,11.2-21.5,14.7c1.9-4.9,5.3-8.9,8.5-13
	c9.4-12,21.5-21.8,34.9-29.1c4.4-2.1,5.7-8.6,2.1-12.1c-3.3-2.9-7.6-4.4-11.1-6.9c-14.4-9.6-26.8-22.4-35.8-37.3
	c-1.8-2.9-5.6-4.1-8.7-3.1C374.5,9.2,373.1,11.5,371.9,13.5z M314.7,66.7c-0.3,1.9-0.7,3.8-0.8,5.7c0.9,19.5,3.4,38.9,3.7,58.4
	c2.1-1.7,4-3.8,6.5-5.2c3.2-1.4,6.7-1.7,10.1-2.5c10.7-2.2,21.1-5.9,31.2-9.9c-7.4-13.7-18.3-25.7-32.1-33.1
	c-4.5-2.9-10.5-3.8-13.9-8.2c-1.9-2-2.1-4.8-2.6-7.3C316.3,65.2,315.2,66.2,314.7,66.7z M594.6,95.4c6.2,5.7,12.5,11.4,17,18.6
	c0.8-5.8-2.9-11.4-7.8-14.2C600.8,98.3,597.6,97.1,594.6,95.4z M919.8,137.5c1.2,2.7,3.3,5,4.5,7.7c1.2,2.6,1,5.6,1.3,8.4
	c4.1-0.7,8.2-1.6,12.3-2.1c-0.4-7.6-0.1-15.3-2.3-22.6c-2.4-1.2-4.9-2.7-7.7-2.2C923,127.5,918.3,132.3,919.8,137.5z M720.2,146.8
	c-4.8,2.1-6.7,7.8-6.4,12.7c-0.2,16.4,0.7,32.7,0.5,49c0,21.6-0.1,43.3,0.3,64.9c0.5,5.4,3.9,10.1,8.1,13.3c1,0.5,1.9,1.9,3.1,1.4
	c4-1.7,7.7-4.4,9.6-8.3c3.3-6.2,2-13.5,1.7-20.3c-0.2-9.7,0-19.4-0.1-29.1c-0.5-13.7,0.2-27.3-0.5-41c-0.1-9.3,0.1-18.7,0-28
	c-0.3-3.8-0.2-7.8-2.6-11C731.1,146,724.9,144.6,720.2,146.8z M319.2,149.8c1.6,11.7,1.9,23.5,3,35.3c2,27.5,4.1,55,6.1,82.5
	c-0.1,5.5,1.4,11.1,4.7,15.5c2.4-3.8,5.4-7.7,5.4-12.5c0-35,0-70.1,0-105.1c0.3-5.4-4.1-10.3-9.4-10.9
	C325.2,154.2,322.1,151.9,319.2,149.8z M331.4,62c1,0.9,2,1.9,3.3,2.4C351,71.7,365,84,374.3,99.2c1.7,2.8,2.9,6,5.5,8.2
	c3.7-5.9,7.6-11.8,12.1-17.2c9.7-11.9,22-21.3,35.3-28.9c-3.6-3.2-8.1-5.1-12-7.9c-14.2-10-26.9-22.8-35.3-38.1
	c-1.9,2.2-3.4,4.7-4.9,7.1C364.3,39.3,348.9,52.7,331.4,62z M1044.6,79c-1.1,0.8-2.8,1-3.1,2.5c2.3,1.6,5.1,2.4,7.5,3.9
	c8.6,5.4,14.4,14.9,15,25c1.7,19.3-0.1,38.7,1.2,58c0.1,13,0,26,0,39c0.7,17.3-0.1,34.7,0.5,52c0.1,5.4,0.2,10.9-1.4,16.1
	c-2.8,9.6-9.8,18.1-19.1,22c-0.3,0.6-1.1,1.7-1.4,2.3c39.1-0.5,78.2,0.5,117.2,0c0-0.2,0-0.5,0.1-0.7c-5.2-2.4-10.6-4.9-14.6-9.2
	c-5.9-5.9-9.1-14.2-9.1-22.4c-0.2-25.7,0.5-51.4-0.5-77.1c0-27.3,0-54.7,0-82c0.2-26.1-0.5-52.2-0.3-78.2
	c-6.4,2.6-12.2,6.3-18.3,9.5C1093.7,52.8,1069.2,66.1,1044.6,79z M619.2,93.4c4.7,5.2,7.1,12.2,7.4,19.1c0.2,26.7-0.3,53.3,0.3,80
	c0,26,0,52,0,78c0.3,8.9-4.3,17.3-10.6,23.2c-2.7,2.7-6.7,3.9-8.6,7.3c36.1,0.2,72.2,0.1,108.2,0.1c-2.2-3.2-5.8-5.2-8.3-8.2
	c-5.3-6.2-8.2-14.2-8.2-22.3c0.2-38-0.3-76.1-0.3-114.1c-0.1-12.2,9.7-23.5,21.8-25.3c12-2.2,24.4,5.7,28.5,17
	c3.1,9.5,1.3,19.6,1.8,29.4c1,15,0,30,0.7,45c-0.2,16.7,0.3,33.3,0.2,50c0.1,7.7-3.2,15.2-8.3,20.9c-2.6,2.9-6.2,4.6-8.5,7.8
	c36,0,72.1,0,108.2,0c-0.9-1.2-1.8-2.4-3-3.1c-9.5-6.1-16.6-16.2-18.5-27.4c0.1-15.7-0.5-31.4-0.4-47.1c-0.6-11.6,0.4-23.3-0.7-34.9
	c-0.3-9.7,0.2-19.4-0.4-29.1c-0.5-9.3,1.2-18.8-1.6-27.8c-4.6-16.9-17.6-31.1-33.9-37.5c-22.3-7.6-48-4.1-67.5,9.1
	c-7.3,4.7-13.2,11.2-19.8,16.9c0-29.3,0-58.7,0.3-88c-31.4,17.3-63.2,34.1-94.6,51.3C609.3,86,615.2,88.5,619.2,93.4z M189.7,143.5
	c-3.5,9.4-7.7,18.5-10.6,28.1c-3.4-12.2-8.3-23.9-12.2-35.9C156,104.6,144.8,73.6,134,42.5c-32,0.3-63.9,0.2-95.9,0.1
	c0,0.6,0,1.7,0,2.2c11.7,3.5,20.2,14.6,22.4,26.3c0.2,8.9-1.4,17.8-2.2,26.7c-6.5,57-12.6,114-19.1,171c-0.7,7-4,13.3-8.1,18.9
	C27,293.2,20.7,296.4,15,300c0,0.6-0.1,1.7-0.1,2.3c5.7-0.5,11.4-0.3,17.1-0.4c16.3,0.2,32.5-0.4,48.8,0.3c0.1-0.5,0.2-1.6,0.3-2.1
	c-8-4-13-12.3-15.2-20.7c-1.5-9,0.9-18.1,1.3-27.1c3.2-28.6,6-57.3,9.2-85.9c1.6-18.7,4.4-37.4,5.5-56.1c0.9,1.6,1.7,3.3,2.1,5.2
	c1.9,7.1,4.6,14,7.1,20.9c15.4,44.6,31.1,89.1,46.6,133.6c4.7,14.4,10.4,28.5,14.7,43c1.2-0.5,2.4-1.2,2.7-2.5
	c24.4-66.6,49.7-132.8,73.8-199.5c0.8,17.9,3.1,35.6,4.7,53.4c-0.1,8.4,1.1,16.7,1.5,25.1c0,9.7,1.5,19.4,1.6,29.1
	c1,11.6,1.3,23.3,2.4,34.9c-0.3,9.4,1.9,18.7,1.5,28.1c-0.8,7.3-5.8,13.8-12.2,17.1c-0.4,0.9-0.7,1.8-1.1,2.7
	c34.5-0.1,69.1,0.2,103.6-0.1c-0.8-1.6-1.8-3.1-3.3-4.1c-4.8-3.4-8.3-8.3-10.7-13.6c-2.8-6.3-2.5-13.3-3.4-20
	c-0.7-16.1-2.5-32-3.3-48.1c-1.2-8.3-0.9-16.7-2-25.1c-0.8-13.3-1.8-26.6-2.9-40c0-8-1.9-15.9-1.6-24c-1.6-16.6-2.3-33.3-3.9-50
	c-1.3-10.7,3.8-22,13-27.7c2.6-1.9,5.7-2.9,8.2-4.7c0.1-0.5,0.2-1.3,0.3-1.8c-3-0.8-6-0.4-9.1-0.4c-27.3,0-54.6,0-82,0
	C216.6,75.8,203.3,109.7,189.7,143.5z M876.6,106.1c28.9-22,70.5-24.4,102.5-7.6c27.3,13.7,45.2,43.5,45.4,74c0.1,20,0,40.1,0,60.1
	c0,4.3,0.2,8.6-0.2,13c-0.6,8.7,5.7,17.3,14.2,19.4c3.4,1.3,7,0.4,10.5-0.2c-2,8.8-6.2,17.6-13.6,23c-13.8,10.3-31.8,14.5-48.8,12
	c-14-3.5-26-14-31.4-27.5c-10.7,12.6-24.8,22.8-41,26.6c-17.7,4.7-37.2,1.9-53-7.4c-12.1-7.9-20.5-21-23.5-35.1
	c-2.2-12.8-1-26.4,5.2-38c4.5-9.1,12.2-16.2,20.8-21.3c25.8-18.4,56.6-30,88.2-32.1c1.3-9.4,1.1-19,0.3-28.4
	c-0.8-4.6-0.6-9.7-3.2-13.8c-4.4-7.3-13.1-11.8-21.6-11c-11.9,1.1-22.4,11.7-22.8,23.8c0.1,6,3,11.6,6.7,16.2
	c-20,6.4-39.2,15.5-56.6,27.3c-3.4,2.2-6.5,5-10.3,6.4c0-8.6-0.6-17.3,0.8-25.9C848.2,138.5,859.8,119.1,876.6,106.1z M916.7,205.2
	c-7.8,7.2-12.3,17.7-12.2,28.3c0.3,7,2.4,14.1,7.4,19.2c4.8,4.7,11.5,7.5,18.2,7.5c10.2-1,19-8.8,22.4-18.2
	c2.4-5.5,1.3-11.7,1.3-17.5c-1-13.8-0.1-27.7-0.5-41.6C939.1,186.5,927.1,195.4,916.7,205.2z M442.7,161.9
	c-2.5,10.6-3.2,21.6-3.6,32.5c0.5,13.6,1.5,27.3,5.7,40.3c9.6,28.4,32.3,52.1,60.4,62.7c15.3,5.1,32,5.6,47.9,2.7
	c22.3-4.3,42.9-16.8,57.1-34.6c2.8-2.8,3.8-7,2.6-10.8c-1.8-4.8-8.1-6.5-12.4-4c-6.5,3.5-13.4,6.3-20.7,7.5
	c-26.7,4.9-55.1-10-67.6-33.8c-7.5-14.4-10.4-30.8-11.5-46.9c-0.8-7,0.3-14.1,0.7-21.1c0.7-12.7,6-24.9,13.8-34.9
	c3-3.3,7.1-5.4,11.4-6.5c5.8-1.2,11.7,0.6,16.9,3.2c6.7,3.6,10.9,10.4,13.4,17.4c2.2,6,1.8,12.5,2.3,18.8c0.4,9.6-2.6,18.9-5,28.1
	c2.3-0.8,4.5-1.9,6.6-3.3c12-8,23.9-16.3,37.4-21.7c4.8-2.4,10.3-3.4,15-6.1c-4.6-13-9.7-26.4-19.4-36.5
	c-9.2-10.4-21.3-18.4-34.6-22.4c-10.6-3.3-21.8-3.9-32.8-2.9c-19.2,0.5-38,8.1-52.4,20.7C458.9,124.1,447.8,142.2,442.7,161.9z
	 M340.9,136.9c-2.7,0.8-6,0.5-8.1,2.7c2.6,1.5,5.6,2.3,8.2,3.8c7.5,4.5,12.5,13.2,12.3,22.1c0,35,0,70,0,105
	c-0.3,12.1-8.1,23.9-19.4,28.6c-0.1,0.6-0.3,1.7-0.4,2.2c8.8-0.4,17.6-0.1,26.5-0.2c28,0.1,56-0.3,83.9,0.2
	c-0.1-0.5-0.2-1.6-0.3-2.1c-13.3-7.2-21.3-22.7-20.3-37.7c0.2-26.4-0.5-52.7,0.5-79.1c-0.1-30.2,0-60.3,0-90.5
	c-2.8,1.9-5.2,4.3-7.8,6.6C394.5,117.1,368.5,130.5,340.9,136.9z M520.3,126.8c6.2-7.3,18.1-5,24.1,1.4c4.3,5.1,6.8,11.7,6.8,18.3
	c0,4.7,0.7,9.4,0.1,14c-0.3,7.2-3.1,13.9-4.3,21c-1.1,6.3,7.2,11.5,12.2,7.2c14.1-9,27.8-19.2,43.5-25.3c5.5-2,11.1-4.1,16.5-6.4
	c-0.5,10.9-0.5,21.8,0.1,32.6c0.2,20.1-0.2,40.3,0.2,60.4c-2.5-1.5-4.4-3.7-6.7-5.4c-4.7-3-11.1-3.1-15.9-0.2
	c-10.8,6.1-23.6,8.7-35.9,6.7c-17.9-2.5-34.1-14.1-42.6-30c-3.7-6.7-5.7-14.1-7.5-21.5c-3.5-15.2-3.8-31.1-2-46.6
	C510.4,143.5,514.3,134.3,520.3,126.8z M525.3,132.7c-4.1,6-7.4,12.7-8.6,19.9c-3,19.6-1.1,40,5.6,58.7
	c6.2,16.1,20.8,28.7,37.7,32.1c9.1,1.7,18.7,1,27.2-2.7c4.5-1.8,8.6-4.9,13.5-5.5c3.8-0.9,7.7,0,11.4,0.6
	c-0.5-22.6-0.5-45.2-0.4-67.9c-10.1,3.8-19.9,8.5-28.9,14.4c-6.2,4.2-12.6,8.1-18.7,12.3c-4.7,3.4-11.3,4.1-16.5,1.3
	c-5.7-2.6-8.9-9.3-8-15.4c1.1-7.7,4.4-15.1,4.5-23c0-7.1,0.5-14.7-3.1-21.1c-2.1-4-6.3-7.1-11-6.8
	C527.9,129.5,526.4,131.1,525.3,132.7z M925,207.3c6.3-5.7,13.5-10.4,20.9-14.4c-0.5,13.2-0.2,26.4,0.7,39.5c0.4,8-4.8,15.6-11.8,19
	c-6.8,2.9-15.5,0.1-19.6-6.1c-3.7-6.2-3.7-14-2.1-20.8C914.7,217.5,919.7,212,925,207.3z M925.8,217.2c-5.6,5.8-8.2,15-4.9,22.7
	c1.8,3.4,5.8,6.2,9.8,5.2c5-1.9,8.8-7.1,8.5-12.5c-0.3-8.8-0.6-17.6-0.6-26.4C934,209.5,929.7,213.1,925.8,217.2z M771.1,348.1
	c2.4,0,4.8,0,7.2,0c0-2.2,0-4.4,0-6.6c-2.4,0-4.8,0-7.3,0C771.1,343.7,771.1,345.9,771.1,348.1z M3.9,342.8c7.7,0.3,15.7-1,23.1,1.9
	c5.8,2.2,7.5,10.1,4.2,15.1c-1.7,2.5-4.7,3.5-7.4,4.5c2.5,0.7,5.3,1.4,7.2,3.3c5,4.7,3.6,14.4-3,17c-7.6,3.2-16.1,1.6-24.2,2
	C3.9,371.9,3.9,357.3,3.9,342.8z M10.6,348c0,4.5,0,8.9,0,13.4c4-0.1,8.3,0.4,12.1-1.2c4.3-1.8,4.5-8.8,0.4-10.9
	C19.2,347.4,14.8,348.1,10.6,348z M10.6,366.6c0,4.9,0,9.8,0,14.7c4.2-0.1,8.8,0.4,12.8-1.3c4.7-2,4.5-9.6,0-11.7
	C19.5,366.2,14.9,366.8,10.6,366.6z M936.7,351.6c1.2,1.4,2.4,2.9,3.6,4.3c2.3-1.9,4.7-3.8,7-5.6c0,12.1,0,24.1,0,36.2
	c2.3,0,4.6,0,6.9,0c0-14.6,0-29.2,0-43.8c-2,0-4,0-6,0C944.4,345.7,940.6,348.6,936.7,351.6z M1006.7,346.2c4.7-4.4,11.9-4.9,18-3.5
	c4.8,1.1,9.6,5.3,8.7,10.7c-0.2,4.6-4.2,7.5-7.8,9.6c2.9,1.5,6.1,3.1,7.8,6c3.2,5.5,1.1,13.4-4.8,16.1c-6.8,3.1-15.5,3-21.6-1.6
	c-4.4-3.2-5.4-9.9-2.4-14.4c1.8-2.7,4.8-4.2,7.7-5.6c-2.1-1.2-4.4-2.2-6-4.2C1003.2,355.6,1003.1,349.6,1006.7,346.2z M1010.7,353.5
	c0.8,4.5,6.2,5.7,9.5,7.9c3-2.4,7-5.4,5.9-9.8C1023.5,345,1011.3,346.2,1010.7,353.5z M1010,374.5c-0.1,5.8,7.1,8.5,12,7.2
	c3.6-0.7,6.4-4.3,5.6-8c-0.7-4.9-6.2-6-10-7.8C1014.4,368,1009.8,370,1010,374.5z M1076.5,349.6c5.1-1.9,11.2-3.5,16.4-0.9
	c3.4,1.8,4.2,7.2,1.1,9.6c-3.7,3.1-8.8,2.8-13.3,2.9c0,1.7,0,3.4,0,5.1c4.2,0.2,8.8-0.3,12.5,2.1c3.9,2.4,4.3,9.1,0.2,11.5
	c-5.6,3.5-12.7,2.1-18.5-0.1c-0.1,2-0.3,3.9-0.4,5.9c7.7,1.9,16.4,2.7,23.7-1.1c5.3-2.8,6.7-10.1,4.1-15.2c-1.8-3.1-5.3-4.4-8.5-5.5
	c3.1-1.1,6.6-2.4,8.3-5.5c2.7-5,0.5-11.8-4.6-14.3c-6.6-3.4-14.4-2.1-21.2-0.3C1076.2,345.8,1076.3,347.7,1076.5,349.6z
	 M1147.1,349.5c5-1.8,10.6-3.4,15.8-1.2c3.9,1.4,5,7.2,1.8,9.9c-3.6,3.2-8.8,2.8-13.3,3c0,1.7,0,3.4,0,5.1c4.2,0.2,9-0.4,12.7,2.2
	c3.6,2.5,4,8.7,0.2,11.2c-5.6,3.7-12.9,2.3-18.8,0c-0.1,2-0.2,3.9-0.3,5.9c7.6,1.9,16,2.6,23.2-0.8c5.7-2.7,7.4-10.6,4.2-15.9
	c-1.9-2.8-5.2-4-8.3-5c3-1.1,6.3-2.3,8-5.2c3-4.8,0.9-11.9-4.1-14.5c-6.6-3.6-14.6-2.3-21.5-0.5
	C1146.9,345.8,1147,347.6,1147.1,349.5z M211.1,354.5c-2.5,0-5.1,0-7.6,0c0,1.6,0,3.2,0,4.9c2.5,0,5.1,0,7.6,0
	c0.2,7.2-0.4,14.4,0.3,21.6c1.6,6.7,10,6.9,15.4,5.6c0-1.6,0.1-3.3,0.1-4.9c-3.1,0.8-7.6,1.4-9.1-2.3c-1.1-6.6-0.2-13.4-0.5-20
	c3,0,6,0,9,0c0-1.6,0-3.2,0-4.9c-3,0-6,0-9,0c0-3.1,0-6.1,0-9.2c-2.1,0.6-4.2,1.2-6.2,1.9C211.1,349.6,211.1,352,211.1,354.5z
	 M341.4,354.5c-2.5,0-5.1,0-7.6,0c0,1.6,0,3.2,0,4.9c2.5,0,5.1,0,7.6,0c0,6.1-0.1,12.1,0,18.2c0,2.8,0.6,5.9,3,7.6
	c3.7,2.8,8.6,2.2,12.9,1.5c0-1.7,0-3.3,0.1-5c-3.1,0.8-7.7,1.4-9.1-2.3c-1-6.6-0.2-13.3-0.5-19.9c3,0,6,0,9,0c0-1.6,0-3.2,0-4.9
	c-3,0-6,0-9,0c0-3.1,0-6.1,0-9.2c-2.1,0.6-4.2,1.3-6.4,1.9C341.4,349.6,341.4,352.1,341.4,354.5z M401,354.5c-2.5,0-5.1,0-7.6,0
	c0,1.6,0,3.2,0,4.9c2.5,0,5.1,0,7.6,0c0.1,6.4-0.2,12.8,0.1,19.2c0,2.5,0.9,5.2,3.1,6.7c3.7,2.6,8.5,2,12.6,1.3
	c0-1.6,0.1-3.3,0.1-4.9c-3.1,0.8-7.6,1.4-9.1-2.3c-1.1-6.6-0.2-13.3-0.5-20c3,0,6,0,9,0c0-1.6,0-3.2,0-4.9c-3,0-6,0-9,0
	c0-3.1,0-6.1,0-9.2c-2.1,0.6-4.2,1.3-6.4,1.9C401,349.6,401,352.1,401,354.5z M825.8,354.5c-2.5,0-5.1,0-7.6,0c0,1.6,0,3.2,0,4.9
	c2.5,0,5.1,0,7.6,0c0,6-0.1,12.1,0,18.1c0,2.7,0.5,5.8,2.8,7.5c3.7,2.9,8.7,2.4,13.1,1.6c0-1.7,0.1-3.3,0.1-5
	c-1.8,0.3-3.7,0.8-5.5,0.6c-2.2-0.5-3.9-2.5-3.9-4.8c-0.3-6,0-12.1-0.1-18.1c3,0,6,0,9,0c0-1.6,0-3.2,0-4.9c-3,0-6,0-9,0
	c0-3.1,0-6.1,0-9.2c-2.1,0.6-4.3,1.3-6.4,1.9C825.7,349.6,825.7,352.1,825.8,354.5z M76.9,363.2c3.4-9.6,17.1-12.5,24.7-6.2
	c4.2,3.7,4.7,9.6,5.2,14.8c-8.2,0.1-16.5-0.1-24.7,0.1c0.8,3.4,2.3,7.1,5.6,8.8c5.1,3.2,11.3,1,16.3-1.4c0,2,0,3.9,0,5.9
	c-6.8,2.2-14.7,3.1-21.2-0.6C75.6,380.5,74.3,370.6,76.9,363.2z M84.9,361.5c-1.4,1.7-2,3.8-2.7,5.8c6,0.1,12,0.1,18,0
	c-0.7-2.1-1.2-4.5-2.8-6.3C94.2,357.6,88,357.9,84.9,361.5z M146.4,367.1c3,4.7,9.3,5.1,13.1,8.8c1.6,1.8,0.5,4.7-1.6,5.6
	c-3.9,1.9-8.2,0.2-11.9-1.2c-0.1,1.8-0.2,3.6-0.3,5.4c5.5,1.6,11.9,2.6,17-0.5c4.5-2.7,5.9-9.8,2.1-13.6c-3.2-3.1-8-3.7-11.4-6.6
	c-1.7-1.4-1.4-4.6,0.7-5.4c3.4-1.9,7.4-0.4,10.8,0.5c0.2-1.7,0.3-3.5,0.4-5.2c-5-1.1-10.6-2.1-15.4,0.6
	C146.1,357.6,144.4,363.1,146.4,367.1z M269.5,356.5c5.8-2.7,12.8-3.9,18.9-1.4c4.1,1.6,5.9,6.2,5.9,10.4c0.2,7-0.1,14,0.3,21
	c-2,0-3.9,0-5.9,0c0-1.3,0.1-2.6,0.2-3.9c-4.9,4.9-12.8,6-18.9,2.9c-5.3-2.9-6-11.5-1-15.1c5.5-4.3,12.8-3.6,19.4-3.7
	c-0.7-2.5-0.9-5.8-3.5-7.1c-4.9-2.3-10.5-0.4-15,1.9C269.7,359.9,269.6,358.2,269.5,356.5z M274.2,373.7c-2.3,1.6-2.3,5.2-0.2,6.9
	c3.9,3.4,11,1.9,13.2-2.8c0.9-2,0.7-4.3,0.9-6.5C283.5,371.3,278.2,370.7,274.2,373.7z M456.9,363.2c3.4-9.6,17-12.4,24.7-6.2
	c4.3,3.7,4.8,9.6,5.2,14.9c-8.2,0.1-16.5-0.1-24.7,0.1c0.9,3.4,2.2,7.1,5.6,8.8c5.2,3.1,11.4,1,16.4-1.4c0,2,0,4,0,6
	c-6.8,2.2-14.8,3.2-21.2-0.6C455.6,380.5,454.2,370.5,456.9,363.2z M465.4,361c-1.8,1.7-2.4,4.1-3.2,6.3c6,0.1,12,0.2,18,0
	c-0.7-2.1-1.1-4.5-2.7-6.2C474.3,357.8,468.6,357.8,465.4,361z M534.3,359.2c0.1-1.6,0.1-3.1,0.2-4.7c-2,0-4,0-5.9,0
	c0,10.7,0,21.3,0,32c2.1,0,4.2,0,6.4,0c0.6-7.6-1.6-15.9,1.9-23c1.9-4.1,6.8-4.8,10.8-4.2c-0.1-1.8-0.1-3.5-0.1-5.2
	c-2.5-0.1-5.2-0.5-7.5,0.4C537.6,355.4,536,357.4,534.3,359.2z M639.2,368.3c3.2,3.5,8.2,4.2,11.8,7.2c2,1.6,1.1,4.9-1,5.9
	c-3.9,2.1-8.3,0.3-12-1.1c-0.1,1.8-0.2,3.6-0.3,5.4c5.3,1.5,11.4,2.5,16.5-0.2c4.6-2.3,6.4-9.1,3.2-13.2c-3-3.8-8.3-4.2-11.9-7.2
	c-1.9-1.4-1.6-4.7,0.6-5.6c3.4-1.8,7.3-0.3,10.8,0.5c0.1-1.7,0.3-3.5,0.5-5.2c-5-1.1-10.5-2-15.2,0.5
	C637.5,357.7,635.7,364.5,639.2,368.3z M699.2,362.8c3.6-9,16.1-11.6,23.8-6.4c4.8,3.5,5.5,9.9,5.9,15.4c-8.2,0.1-16.5-0.1-24.7,0.1
	c0.9,3.7,2.5,7.5,6.2,9.1c5.1,2.7,10.9,0.5,15.7-1.7c0,2,0,3.9,0,5.9c-6.8,2.2-14.8,3.1-21.3-0.7
	C697.7,380.2,696.3,370.1,699.2,362.8z M707.1,361.5c-1.4,1.7-2,3.8-2.7,5.8c6,0.1,12,0.1,18,0c-0.7-2.2-1.1-4.7-2.8-6.4
	C716.2,357.6,710.1,357.9,707.1,361.5z M771.6,386.5c2.1,0,4.2,0,6.4,0c0-10.7,0-21.3,0-32c-2.1,0-4.3,0-6.4,0
	C771.6,365.2,771.6,375.8,771.6,386.5z"/>
</svg>
